<!--?xml version="1.0" encoding="utf-8"?-->
<!-- Generator: Adobe Illustrator 18.0.0, SVG Export Plug-In . SVG Version: 6.00 Build 0)  -->

<svg version="1.1" id="_x31_0" xmlns="http://www.w3.org/2000/svg" xmlns:xlink="http://www.w3.org/1999/xlink" x="0px" y="0px" viewBox="0 0 512 512" style="width: 256px; height: 256px; opacity: 1;" xml:space="preserve">
<style type="text/css">
	.st0{fill:#374149;}
</style>
<g>
	<path class="st0" d="M498.508,435.626l-88.174-88.429l-15.871-15.938c-0.003,0.003-0.007,0.007-0.007,0.007l-0.057-0.053
		c-0.606,0.897-1.264,1.756-1.885,2.646c-3.01,4.318-6.158,8.513-9.432,12.597c-1.541,1.918-3.108,3.807-4.709,5.678
		c-3.214,3.758-6.544,7.403-9.981,10.934c-1.734,1.783-3.49,3.535-5.277,5.262c-3.902,3.754-7.91,7.399-12.078,10.874
		c-1.154,0.97-2.313,1.938-3.49,2.885c-5.334,4.273-10.814,8.383-16.545,12.191l0.008,0.011c-0.022,0.015-0.042,0.03-0.065,0.046
		l104.182,104.485c8.721,8.743,20.204,13.164,31.623,13.179c11.491,0.015,22.918-4.368,31.662-13.089
		C515.976,481.474,516.017,453.117,498.508,435.626z" style="fill: rgb(88, 85, 85);"></path>
	<path class="st0" d="M404.545,202.369c0.034-23.577-4.03-46.207-11.453-67.271c-0.118-0.333-0.22-0.67-0.341-0.999
		c-0.894-2.494-1.854-4.95-2.842-7.395c-0.254-0.636-0.489-1.276-0.75-1.908c-0.966-2.32-1.998-4.61-3.047-6.889
		c-0.322-0.7-0.621-1.408-0.95-2.104c-1.121-2.362-2.309-4.682-3.517-6.995c-0.295-0.567-0.571-1.15-0.878-1.718
		c-1.442-2.694-2.953-5.352-4.512-7.971c-0.079-0.14-0.155-0.28-0.238-0.42c-18.793-31.426-45.862-57.342-78.194-74.723
		c-0.226-0.121-0.462-0.234-0.692-0.356c-2.665-1.419-5.356-2.79-8.089-4.091c-0.212-0.098-0.428-0.19-0.64-0.288
		C262.392,6.965,233.377,0.042,202.76,0C91.334-0.162,0.551,90.355,0.388,201.782C0.225,313.208,90.747,403.995,202.173,404.158
		C313.6,404.317,404.383,313.795,404.545,202.369z M326.896,202.255c-0.102,68.61-55.999,124.348-124.61,124.25
		c-68.61-0.102-124.348-55.998-124.246-124.61c0.098-68.61,55.999-124.348,124.606-124.246
		C271.257,77.748,326.995,133.645,326.896,202.255z" style="fill: rgb(88, 85, 85);"></path>
</g>
</svg>
